<?xml version="1.0" encoding="UTF-8"?> <svg xmlns="http://www.w3.org/2000/svg" xmlns:xlink="http://www.w3.org/1999/xlink" xmlns:v="https://vecta.io/nano" width="169.562" height="221.333"><style><![CDATA[.B{opacity:.5}.C{fill:#2d1c43}.D{fill:#777676}]]></style><linearGradient id="A" gradientUnits="userSpaceOnUse" x1="21.619" y1="181.515" x2="32.866" y2="181.515"><stop offset="0" stop-color="#36204c"></stop><stop offset="1" stop-color="#583681"></stop></linearGradient><path d="M21.62 177.798c.6 2.807 2.383 8.09 6.238 8.193s5.01-2.668 5.01-2.668l-3.245-6.287-8.002.762z" fill="url(#A)"></path><linearGradient id="B" gradientUnits="userSpaceOnUse" x1="26.911" y1="181.156" x2="32.866" y2="181.156"><stop offset="0" stop-color="#36204c"></stop><stop offset="1" stop-color="#583681"></stop></linearGradient><path d="M30.97 185.274c1.395-.79 1.896-1.95 1.896-1.95l-3.245-6.287-2.7.258c.855 2.892 2.268 5.565 4.06 7.98z" fill="url(#B)" class="B"></path><linearGradient id="C" gradientUnits="userSpaceOnUse" x1="21.619" y1="181.812" x2="28.643" y2="181.812"><stop offset="0" stop-color="#36204c"></stop><stop offset="1" stop-color="#583681"></stop></linearGradient><path d="M23.367 177.632l-1.748.166c.6 2.807 2.383 8.09 6.238 8.193.286.008.53-.028.785-.05-3.51-2.423-4.464-6.07-5.275-8.308z" fill="url(#C)"></path><path d="M132.163 105.784l2.337.546-26.384 112.935-2.337-.546z" fill="#929dbc"></path><path d="M106.726 218.934l-.948-.222 26.39-112.93 1.006.234z" fill="#fff"></path><linearGradient id="D" gradientUnits="userSpaceOnUse" x1="126.106" y1="123.828" x2="169.562" y2="123.828"><stop offset="0" stop-color="#e4dae5"></stop><stop offset="1" stop-color="#f7f3f8"></stop></linearGradient><path d="M169.562 114.795s-8.35-10.825-20.79-7.814-16.187-1.735-16.187-1.735l-6.478 27.07s6.604 3.962 20.374 0c11.15-3.207 15.717 10.094 15.717 10.094 3.624-5.923 4.808-17.7 7.365-27.615z" fill="url(#D)"></path><path d="M151.074 108.538c4.493-.544 12.757 1.222 17.803 9.088l.685-2.83s-8.35-10.825-20.79-7.814-16.187-1.735-16.187-1.735.8 5.43 18.5 3.29z" fill="#fff"></path><linearGradient id="E" gradientUnits="userSpaceOnUse" x1="113.457" y1="152.83" x2="126.098" y2="152.83"><stop offset="0" stop-color="#36204c"></stop><stop offset="1" stop-color="#583681"></stop></linearGradient><path d="M113.457 152.854s5.34 6.88 8.754 6.56c4.974-.466 4.587-9.76 2.11-10.36s-6.67-2.822-6.67-2.822l-4.192 6.62z" fill="url(#E)"></path><path d="M114.406 151.357l-.95 1.497s5.34 6.88 8.754 6.56c.77-.07 1.396-.373 1.922-.803-1.15-4.393-5.737-5.7-9.727-7.255z" class="B D"></path><linearGradient id="F" gradientUnits="userSpaceOnUse" x1="113.454" y1="150.39" x2="126.106" y2="150.39"><stop offset="0" stop-color="#36204c"></stop><stop offset="1" stop-color="#583681"></stop></linearGradient><path d="M126.043 154.548c-.192-1.7-.827-3.07-1.728-3.287-2.473-.6-6.66-2.82-6.66-2.82l-3.407 5.377-.793-.96 4.2-6.625s4.188 2.22 6.66 2.82c1.285.312 2.016 2.95 1.728 5.494z" fill="url(#F)"></path><linearGradient id="G" gradientUnits="userSpaceOnUse" x1="14.319" y1="162.66" x2="122.216" y2="162.66"><stop offset="0" stop-color="#e4dae5"></stop><stop offset="1" stop-color="#f7f3f8"></stop></linearGradient><path d="M122.216 146.822l-9.648 8.737c-4.584-5.113-9.3-9.313-14.04-10.572 0 0-1.116 41.136-23.928 65.88l-10.164-.6-2.664-23.075-.396 23.075-10.177.6s-13.885-9.504-22.464-31.536l-8.124 1.596S7.16 157.13 19.6 135.112c6.504-11.53 17.844-19.008 37.812-20.448 25.597-1.862 47.64 8.734 64.814 32.158z" fill="url(#G)"></path><linearGradient id="H" gradientUnits="userSpaceOnUse" x1="58.954" y1="196.853" x2="66.486" y2="196.853"><stop offset="0" stop-color="#ceb8d4" stop-opacity=".9"></stop><stop offset="1" stop-color="#ceb8d4" stop-opacity=".3"></stop></linearGradient><path d="M61.377 183.303c-1.9.528-2.624 23.276-2.375 27.102l2.374-.14.396-23.075 2.664 23.075 1.924.114c.97-7.17-3.944-27.363-4.983-27.076z" fill="url(#H)" class="B"></path><path d="M53.686 210.72l-2.48.147S38.017 201.83 29.41 180.98c13.862 21.212 22.31 27.247 24.277 29.74zm19.365.055l1.553.093c21.068-22.86 23.625-59.69 23.894-65.164-1.427 12.99-10.46 47.87-25.447 65.07zM21.62 136.193c8.6-19.85 48.815-16.17 57.656-15.195 19.123 2.11 36.683 19.262 41.91 26.757l1.026-.93c-17.173-23.428-39.212-34.027-64.81-32.168-19.967 1.45-31.3 8.925-37.81 20.454-12.432 22.02 1.014 45.81 1.014 45.81l1.428-.278c-3.317-8.772-10.648-20.834-.415-44.45z" fill="#f6f6f6"></path><linearGradient id="I" gradientUnits="userSpaceOnUse" x1="12.352" y1="72.4" x2="107.626" y2="72.4"><stop offset="0" stop-color="#281f6f"></stop><stop offset="1" stop-color="#01034a"></stop></linearGradient><path d="M59.988 31.17c-10.375-.025-18.23-3.8-18.67-6.058-.07-.354-.48-.438-.76-.31-2.956 1.373-2.083 5.55-.542 7.603.607.81 1.357 1.477 2.192 2.034-1.222.468-8.453-3.978-7.254-10.662.122-.68-.67-.9-1.028-.434-2.224 2.896-3.684 5.944-2.336 9.568.754 2.027 2.21 3.514 3.924 4.685l-.357.204c-1.27-.425-2.52-.903-3.73-1.494-1.67-.814-4.795-2.246-4.55-4.447.05-.46-.572-.513-.785-.213-1.663 2.33.14 4.747 1.925 6.342 1.054.94 1.322 3.766.313 4.62C18.527 50.9 12.35 62.982 12.35 76.435c0 25 21.328 45.268 47.637 45.268s47.638-20.267 47.638-45.268-21.33-45.202-47.638-45.265z" fill="url(#I)"></path><path d="M107.623 76.442c0 24.995-21.324 45.264-47.64 45.264-26.304 0-47.628-20.27-47.628-45.264 0-1.85.12-3.673.348-5.46 6.096 18.336 24.133 31.62 45.444 31.62 24.36 0 44.448-17.364 47.28-39.792a43.2 43.2 0 0 1 2.197 13.632z" fill="#22100d" class="B"></path><linearGradient id="J" gradientUnits="userSpaceOnUse" x1="12.352" y1="58.638" x2="107.626" y2="58.638"><stop offset="0" stop-color="#e4dae5"></stop><stop offset="1" stop-color="#f7f3f8"></stop></linearGradient><path d="M14.43 69.485c6.827-26.97 46.298-42.467 69.806-27.413 17.325 11.094 24.706 33.084 19.588 52.106a43.21 43.21 0 0 0 3.802-17.742c0-25-21.33-45.203-47.638-45.266-10.375-.025-18.23-3.8-18.67-6.058-.07-.354-.48-.438-.76-.31-2.956 1.373-2.083 5.55-.542 7.603.607.81 1.357 1.477 2.192 2.034-1.222.468-8.453-3.978-7.254-10.662.122-.68-.67-.9-1.028-.434-2.224 2.896-3.684 5.944-2.336 9.568.754 2.027 2.21 3.514 3.924 4.685l-.357.204c-1.27-.425-2.52-.903-3.73-1.494-1.67-.814-4.795-2.246-4.55-4.447.05-.46-.572-.513-.785-.213-1.663 2.33.14 4.747 1.925 6.342 1.054.94 1.322 3.766.313 4.62-9.806 8.292-15.982 20.374-15.982 33.827 0 2.805.28 5.545.796 8.21-.39-5.085.04-10.244 1.283-15.16z" fill="url(#J)"></path><g fill="#fff"><path d="M59.988 16.68c29.97 0 54.35 24.38 54.35 54.35s-24.382 54.35-54.35 54.35-54.35-24.38-54.35-54.35 24.38-54.35 54.35-54.35m0-3.6c-32.005 0-57.95 25.945-57.95 57.95s25.944 57.95 57.95 57.95 57.95-25.945 57.95-57.95-25.945-57.95-57.95-57.95h0z" opacity=".54"></path><circle cx="59.989" cy="71.029" r="57.95" opacity=".2"></circle></g><linearGradient id="K" gradientUnits="userSpaceOnUse" x1="23.176" y1="118.569" x2="96.801" y2="118.569"><stop offset="0" stop-color="#36204c"></stop><stop offset="1" stop-color="#583681"></stop></linearGradient><path d="M92.263 123.107h-64.55a4.54 4.54 0 0 1-4.538-4.537h0a4.54 4.54 0 0 1 4.538-4.539h64.55a4.54 4.54 0 0 1 4.538 4.539h0a4.54 4.54 0 0 1-4.538 4.537z" fill="url(#K)"></path><linearGradient id="L" gradientUnits="userSpaceOnUse" x1="23.18" y1="116.689" x2="96.799" y2="116.689"><stop offset="0" stop-color="#36204c"></stop><stop offset="1" stop-color="#583681"></stop></linearGradient><path d="M96.8 118.574a4.19 4.19 0 0 1-.071.78 4.52 4.52 0 0 0-4.464-3.769h-64.55c-1.26 0-2.387.504-3.204 1.332-.66.648-1.104 1.488-1.26 2.437a4.2 4.2 0 0 1-.071-.78c0-1.26.504-2.39 1.33-3.216.817-.827 1.944-1.333 3.204-1.333h64.55c2.507 0 4.535 2.04 4.535 4.55z" fill="url(#L)"></path><linearGradient id="M" gradientUnits="userSpaceOnUse" x1="23.18" y1="120.122" x2="96.799" y2="120.122"><stop offset="0" stop-color="#36204c"></stop><stop offset="1" stop-color="#583681"></stop></linearGradient><path d="M96.8 118.574c0 1.248-.504 2.388-1.33 3.205a4.54 4.54 0 0 1-3.204 1.331h-64.55a4.54 4.54 0 0 1-4.535-4.536c0-.504.084-.983.24-1.44.587 1.8 2.29 3.096 4.295 3.096h64.55a4.49 4.49 0 0 0 3.204-1.331c.492-.492.876-1.092 1.093-1.765.154.456.238.936.238 1.44z" fill="url(#M)" class="B"></path><linearGradient id="N" gradientUnits="userSpaceOnUse" x1="48.619" y1="212.986" x2="61.581" y2="212.986"><stop offset="0" stop-color="#36204c"></stop><stop offset="1" stop-color="#583681"></stop></linearGradient><path d="M51.203 210.868l.797 2.534-3.38 2.306 12.962-.43-.21-5.015z" fill="url(#N)"></path><linearGradient id="O" gradientUnits="userSpaceOnUse" x1="68.164" y1="21.025" x2="117.889" y2="71.161"><stop offset="0" stop-color="#fff"></stop><stop offset="1" stop-color="#fff" stop-opacity="0"></stop></linearGradient><path d="M63.094 24.576c2.895-6.112 24.233-3.815 37.248 13.852 11.153 15.143 13.164 38.01 7.284 38.01-1.594 0-5.923-21.92-20.86-31.794-15.98-10.565-28.438-10.005-23.673-20.067z" opacity=".8" fill="url(#O)"></path><linearGradient id="P" gradientUnits="userSpaceOnUse" x1="12.898" y1="55.331" x2="46.902" y2="110.242"><stop offset="0" stop-color="#fff"></stop><stop offset="1" stop-color="#fff" stop-opacity="0"></stop></linearGradient><path d="M60.748 111.052c-2.63 6.23-24.047 4.858-37.813-12.23-11.796-14.647-14.79-37.406-8.917-37.66 1.593-.068 6.863 21.646 22.212 30.864 16.422 9.865 28.843 8.765 24.518 19.025z" opacity=".8" fill="url(#P)"></path><linearGradient id="Q" gradientUnits="userSpaceOnUse" x1="84.306" y1="159.699" x2="97.542" y2="159.699"><stop offset="0" stop-color="#36204c"></stop><stop offset="1" stop-color="#583681"></stop></linearGradient><path d="M87.494 151.893c.543 9.3 5.486 12.776 9.172 9.2.92-.892 1.954 2.74-1.696 5.377-3.48 2.514-11.173 1.876-10.637-14.413 0 0 3.147-.42 3.16-.174z" fill="url(#Q)"></path><path d="M90.223 167.4c.41-.287.8-.597 1.138-.96 1.082-1.16 1.4-2.6 1.394-4.094-2.59-.673-4.898-4.262-5.26-10.453-.014-.247-3.16.174-3.16.174-.347 10.5 2.727 14.49 5.89 15.333z" class="B C"></path><linearGradient id="R" gradientUnits="userSpaceOnUse" x1="85.425" y1="129.259" x2="96.306" y2="129.259"><stop offset="0" stop-color="#36204c"></stop><stop offset="1" stop-color="#583681"></stop></linearGradient><path d="M92.74 120.674c-3.388.323-8.77 8.55-6.95 16.56.264 1.163 2.076.513 2.14-.58.362-6.22 4.3-12.46 7.643-13.545 2.435-.79-1.904-2.52-2.833-2.433z" fill="url(#R)"></path><path d="M87.936 124.933c-1.906 3.197-3.17 7.782-2.145 12.3.264 1.163 2.075.513 2.14-.58.173-2.988 1.178-5.977 2.54-8.4-.715-1.212-1.52-2.36-2.535-3.318z" class="B C"></path><linearGradient id="S" gradientUnits="userSpaceOnUse" x1="90.815" y1="122.064" x2="96.306" y2="122.064"><stop offset="0" stop-color="#36204c"></stop><stop offset="1" stop-color="#583681"></stop></linearGradient><path d="M92.117 122.03c.972.386 1.865.854 2.678 1.427.262-.142.52-.267.778-.35 2.436-.79-1.903-2.52-2.832-2.433-.597.058-1.257.37-1.927.874l1.303.48z" fill="url(#S)"></path><linearGradient id="T" gradientUnits="userSpaceOnUse" x1="93.871" y1="164.033" x2="97.541" y2="164.033"><stop offset="0" stop-color="#36204c"></stop><stop offset="1" stop-color="#583681"></stop></linearGradient><path d="M96.664 161.103a5.16 5.16 0 0 1-1.52 1.042c.045 1.753-.28 3.482-1.273 4.956.396-.173.768-.38 1.1-.62 3.65-2.637 2.617-6.27 1.694-5.377z" fill="url(#T)"></path><use xlink:href="#h" fill="#564f4f"></use><use xlink:href="#h" class="B C"></use><linearGradient id="U" gradientUnits="userSpaceOnUse" x1="27.998" y1="129.259" x2="38.879" y2="129.259"><stop offset="0" stop-color="#36204c"></stop><stop offset="1" stop-color="#583681"></stop></linearGradient><path d="M28.73 123.107c3.343 1.086 7.28 7.324 7.644 13.545.063 1.094 1.876 1.744 2.14.58 1.817-8.01-3.563-16.235-6.95-16.56-.93-.088-5.268 1.642-2.834 2.433z" fill="url(#U)"></path><path d="M36.37 124.933c1.905 3.197 3.17 7.782 2.145 12.3-.264 1.163-2.075.513-2.14-.58-.174-2.988-1.178-5.977-2.54-8.4.716-1.212 1.52-2.36 2.536-3.318z" class="B C"></path><linearGradient id="V" gradientUnits="userSpaceOnUse" x1="27.998" y1="122.064" x2="33.491" y2="122.064"><stop offset="0" stop-color="#36204c"></stop><stop offset="1" stop-color="#583681"></stop></linearGradient><path d="M32.187 122.03c-.97.386-1.864.854-2.677 1.427-.262-.142-.522-.267-.78-.35-2.435-.79 1.903-2.52 2.833-2.433.597.058 1.256.37 1.928.874l-1.305.48z" fill="url(#V)"></path><linearGradient id="W" gradientUnits="userSpaceOnUse" x1="56.591" y1="212.853" x2="61.581" y2="212.853"><stop offset="0" stop-color="#36204c"></stop><stop offset="1" stop-color="#583681"></stop></linearGradient><path d="M56.59 215.443l5-.165-.21-5.015-2.82.168a7.75 7.75 0 0 1-1.962 5.012z" fill="url(#W)" class="B"></path><linearGradient id="X" gradientUnits="userSpaceOnUse" x1="48.619" y1="213.252" x2="53.9" y2="213.252"><stop offset="0" stop-color="#36204c"></stop><stop offset="1" stop-color="#583681"></stop></linearGradient><path d="M50.852 215.632l1.952-1.362c.78-.552 1.448-.814.89-1.796-.334-.586-.865-1.085-1.245-1.646-.008-.01-.012-.02-.02-.032l-1.227.072.796 2.534-3.38 2.305 2.233-.075z" fill="url(#X)"></path><linearGradient id="Y" gradientUnits="userSpaceOnUse" x1="64.226" y1="212.986" x2="77.19" y2="212.986"><stop offset="0" stop-color="#36204c"></stop><stop offset="1" stop-color="#583681"></stop></linearGradient><path d="M74.604 210.868l-.797 2.534 3.382 2.306-12.963-.43.2-5.015z" fill="url(#Y)"></path><linearGradient id="Z" gradientUnits="userSpaceOnUse" x1="64.226" y1="212.839" x2="68.396" y2="212.839"><stop offset="0" stop-color="#36204c"></stop><stop offset="1" stop-color="#583681"></stop></linearGradient><path d="M67.165 210.426l-2.73-.163-.2 5.015 4.17.138c-.757-1.573-1.226-3.297-1.23-5z" fill="url(#Z)" class="B"></path><linearGradient id="a" gradientUnits="userSpaceOnUse" x1="71.721" y1="213.25" x2="77.19" y2="213.25"><stop offset="0" stop-color="#36204c"></stop><stop offset="1" stop-color="#583681"></stop></linearGradient><path d="M73.314 210.792l-1.594 2.448c1.054.748 2.027 1.514 2.935 2.384l2.534.083-3.383-2.305.797-2.534-1.29-.076z" fill="url(#a)"></path><linearGradient id="b" gradientUnits="userSpaceOnUse" x1="32.862" y1="144.227" x2="88.037" y2="144.227"><stop offset="0" stop-color="#e4dae5"></stop><stop offset="1" stop-color="#f7f3f8"></stop></linearGradient><path d="M35.91 112.273c3.1-4.48 44.06-4.035 48.49 0s4.758 60.883 1.28 64.687-48.11 2.685-50.32-.365c-4.134-5.708-2.56-59.84.55-64.322z" fill="url(#b)"></path><g class="D"><path d="M85.688 176.965c-3.48 3.792-48.12 2.677-50.327-.37-1.92-2.653-2.605-15.792-2.484-29.52.084 11.544.827 21.612 2.484 23.892 2.208 3.048 46.847 4.176 50.327.372 1.464-1.597 2.256-12.6 2.34-25.104.132 14.665-.66 28.896-2.34 30.732z" opacity=".2"></path><path d="M85.688 136.406c-3.48 1.548-48.12 1.092-50.327-.145-2.113-1.188-2.736-7.56-2.413-13.74.23 3.912.973 7.14 2.413 7.944 2.208 1.236 46.847 1.692 50.327.145 1.284-.577 2.052-4.104 2.28-8.412.323 6.527-.445 13.392-2.28 14.208z" opacity=".4"></path></g><linearGradient id="c" gradientUnits="userSpaceOnUse" x1="32.862" y1="121.867" x2="88.037" y2="121.867"><stop offset="0" stop-color="#e4dae5"></stop><stop offset="1" stop-color="#f7f3f8"></stop></linearGradient><path d="M35.91 108.844c3.1-1.825 44.06-1.646 48.49 0s4.758 24.813 1.28 26.362-48.11 1.095-50.32-.148c-4.134-2.325-2.56-24.386.55-26.214z" fill="url(#c)"></path><path d="M88.015 125.45c-.167-6.3-1.367-12.707-3.61-13.535-4.428-1.645-45.384-1.824-48.492 0-1.632.96-2.843 7.5-3.023 13.835-.204-7.104 1.127-15.78 3.023-16.906 3.108-1.825 44.064-1.646 48.492 0 2.616.97 3.803 9.5 3.61 16.606z" opacity=".3" fill="#636262"></path><path d="M85.688 135.206c-3.48 1.548-48.12 1.093-50.327-.144-2.113-1.188-2.736-7.56-2.413-13.74.23 3.91.973 7.14 2.413 7.943 2.208 1.236 46.847 1.692 50.327.145 1.284-.576 2.052-4.104 2.28-8.412.323 6.527-.445 13.392-2.28 14.208z" opacity=".2" class="D"></path><linearGradient id="d" gradientUnits="userSpaceOnUse" x1="39.45" y1="152.855" x2="79.81" y2="152.855"><stop offset="0" stop-color="#ceb8d4" stop-opacity=".9"></stop><stop offset="1" stop-color="#ceb8d4" stop-opacity=".3"></stop></linearGradient><path d="M41.816 140.95c-2.862 3.276-3.436 22.78 0 24.61s35.348 2.062 36.518 0 2.633-21.865 0-24.61-33.656-3.28-36.518 0z" fill="url(#d)" class="B"></path><linearGradient id="e" gradientUnits="userSpaceOnUse" x1="24.74" y1="162.455" x2="28.74" y2="162.455"><stop offset="0" stop-color="#ceb8d4" stop-opacity=".9"></stop><stop offset="1" stop-color="#ceb8d4" stop-opacity=".3"></stop></linearGradient><path d="M26.784 145.74c.001-.08-.22-1.465-.792 1.066-2.68 11.9-.485 27.823 1.25 32.815.52-.145.958-.193 1.498-.294-1.076-7.047-2.062-27.96-1.956-33.587z" fill="url(#e)" class="B"></path><linearGradient id="f" gradientUnits="userSpaceOnUse" x1="98.526" y1="150.126" x2="113.864" y2="150.126"><stop offset="0" stop-color="#ceb8d4" stop-opacity=".9"></stop><stop offset="1" stop-color="#ceb8d4" stop-opacity=".3"></stop></linearGradient><path d="M113.864 154.382l-1.296 1.176c-4.584-5.113-9.3-9.313-14.04-10.572-.06-.037 2.7-1.68 9.733 3.228 1.536 1.08 4.213 3.755 5.604 6.168z" fill="url(#f)" class="B"></path><defs><path id="h" d="M39.972 152.067c.536 16.29-7.157 16.927-10.638 14.413-.763-.55-1.512-1.035-1.842-1.445-.162-1.388-.148-2.58-.232-4.145 3.685 3.566 9.008.313 9.55-8.997.015-.247 3.162.174 3.162.174z"></path></defs></svg> 