<svg xmlns="http://www.w3.org/2000/svg" version="1.1" xmlns:xlink="http://www.w3.org/1999/xlink" xmlns:svgjs="http://svgjs.com/svgjs" width="512" height="512" x="0" y="0" viewBox="0 0 512.003 512.003" style="enable-background:new 0 0 512 512" xml:space="preserve" class=""><g>
<path xmlns="http://www.w3.org/2000/svg" style="" d="M162.333,490.725c-1.919,0-3.839-0.732-5.303-2.196l-35.824-35.823c-2.929-2.93-2.929-7.678,0-10.607  c2.929-2.928,7.678-2.928,10.606,0l35.824,35.823c2.929,2.93,2.929,7.678,0,10.607C166.172,489.992,164.253,490.725,162.333,490.725  z" fill="#3F4C58" data-original="#3f4c58" class=""></path>
<circle xmlns="http://www.w3.org/2000/svg" style="" cx="172.141" cy="493.039" r="18.963" fill="#F6CE6E" data-original="#f6ce6e"></circle>
<path xmlns="http://www.w3.org/2000/svg" style="" d="M190.586,488.698c-0.778,3.322-2.442,6.479-5.032,9.069  c-7.406,7.406-19.412,7.406-26.818,0c-2.59-2.59-4.254-5.747-5.032-9.069c-1.447,6.176,0.217,12.933,5.032,17.748  c7.406,7.406,19.412,7.406,26.818,0C190.37,501.63,192.033,494.874,190.586,488.698z" fill="#000000" data-original="#000000" class=""></path>
<path xmlns="http://www.w3.org/2000/svg" style="" d="M64.6,392.991c-1.919,0-3.839-0.732-5.303-2.196l-35.823-35.823c-2.929-2.93-2.929-7.678,0-10.607  c2.929-2.928,7.678-2.928,10.606,0l35.823,35.823c2.929,2.93,2.929,7.678,0,10.607C68.439,392.259,66.519,392.991,64.6,392.991z" fill="#3F4C58" data-original="#3f4c58" class=""></path>
<circle xmlns="http://www.w3.org/2000/svg" style="" cx="18.964" cy="339.859" r="18.963" fill="#F6CE6E" data-original="#f6ce6e"></circle>
<path xmlns="http://www.w3.org/2000/svg" style="" d="M37.405,335.516c-0.778,3.322-2.442,6.479-5.032,9.07  c-7.406,7.406-19.412,7.405-26.818,0c-2.59-2.59-4.254-5.747-5.032-9.07c-1.447,6.176,0.216,12.933,5.032,17.748  c7.406,7.406,19.412,7.406,26.818,0C37.188,348.449,38.852,341.693,37.405,335.516z" fill="#000000" data-original="#000000" class=""></path>
<rect xmlns="http://www.w3.org/2000/svg" x="162.344" y="198.356" transform="matrix(-0.7071 -0.7071 0.7071 -0.7071 184.3881 488.088)" style="" width="61.872" height="15" fill="#3F4C58" data-original="#3f4c58" class=""></rect>
<rect xmlns="http://www.w3.org/2000/svg" x="202.48" y="166.559" transform="matrix(-0.7071 -0.7071 0.7071 -0.7071 244.7587 622.6988)" style="" width="97.729" height="188.198" fill="#A9B3C7" data-original="#a9b3c7"></rect>
<path xmlns="http://www.w3.org/2000/svg" style="" d="M284.402,220.731c-1.92,0-3.839-0.732-5.303-2.197l-9.455-9.455c-2.929-2.929-2.929-7.678,0-10.607  c2.929-2.928,7.678-2.929,10.606,0.001l9.455,9.455c2.929,2.929,2.929,7.678,0,10.606  C288.241,219.999,286.321,220.731,284.402,220.731z" fill="#6A95E6" data-original="#6a95e6" class=""></path>
<path xmlns="http://www.w3.org/2000/svg" style="" d="M267.911,237.223c-1.919,0-3.838-0.732-5.303-2.196l-9.455-9.454  c-2.929-2.929-2.929-7.678-0.001-10.606c2.929-2.93,7.677-2.929,10.607-0.001l9.455,9.454c2.929,2.929,2.929,7.678,0.001,10.607  C271.75,236.49,269.83,237.223,267.911,237.223z" fill="#FFFFFF" data-original="#ffffff" class=""></path>
<path xmlns="http://www.w3.org/2000/svg" style="" d="M213.081,307.181l30.421,30.421l29.849-29.849l-30.421-30.421c-3.604-3.604-9.446-3.604-13.05,0  l-16.799,16.799C209.478,297.734,209.478,303.577,213.081,307.181z" fill="#EAEAEA" data-original="#eaeaea" class=""></path>
<polygon xmlns="http://www.w3.org/2000/svg" style="" points="283.333,159.564 266.32,176.577 316.95,227.207 200.888,343.271   219.361,361.743 352.436,228.667 " fill="#000000" data-original="#000000" class=""></polygon>
<path xmlns="http://www.w3.org/2000/svg" style="" d="M161.997,406.17l-56.166-56.167l-59.052,48.889c-8.648,7.159-9.26,20.206-1.322,28.145l39.506,39.506  c7.938,7.938,20.985,7.326,28.145-1.322L161.997,406.17z" fill="#A9B3C7" data-original="#a9b3c7"></path>
<path xmlns="http://www.w3.org/2000/svg" style="" d="M113.108,465.221l48.889-59.052l-56.166-56.167l-17.05,14.116l43.58,43.58  l-34.774,42.002c-7.16,8.648-20.206,9.26-28.145,1.322l15.521,15.521C92.902,474.482,105.948,473.87,113.108,465.221z" fill="#000000" data-original="#000000" class=""></path>
<path xmlns="http://www.w3.org/2000/svg" style="" d="M443.253,319.484L192.516,68.747c-6.242-6.242-6.242-16.363,0-22.605l41.461-41.461  c6.242-6.242,16.363-6.242,22.605,0l250.737,250.737c6.242,6.242,6.242,16.363,0,22.605l-41.461,41.461  C459.616,325.727,449.496,325.727,443.253,319.484z" fill="#EAEAEA" data-original="#eaeaea" class=""></path>
<path xmlns="http://www.w3.org/2000/svg" style="" d="M251.708,49.929c-1.919,0-3.839-0.732-5.303-2.196l-6.166-6.166c-2.929-2.93-2.929-7.678,0-10.607  c2.929-2.928,7.678-2.928,10.606,0l6.166,6.166c2.929,2.93,2.929,7.678,0,10.607C255.547,49.196,253.628,49.929,251.708,49.929z" fill="#6A95E6" data-original="#6a95e6" class=""></path>
<path xmlns="http://www.w3.org/2000/svg" style="" d="M235.192,66.444c-1.919,0-3.839-0.732-5.303-2.196l-6.166-6.166c-2.929-2.93-2.929-7.678,0-10.607  c2.929-2.928,7.678-2.928,10.606,0l6.166,6.166c2.929,2.93,2.929,7.678,0,10.607C239.031,65.712,237.112,66.444,235.192,66.444z" fill="#F6CE6E" data-original="#f6ce6e"></path>
<path xmlns="http://www.w3.org/2000/svg" style="" d="M507.319,255.419l-6.974-6.974c-0.448,0.595-0.925,1.174-1.466,1.716  l-41.461,41.461c-6.242,6.242-16.363,6.242-22.605,0L191.05,47.857c-4.712,6.262-4.234,15.188,1.466,20.889l250.737,250.737  c6.242,6.242,16.363,6.242,22.605,0l41.461-41.461C513.562,271.781,513.562,261.661,507.319,255.419z" fill="#000000" data-original="#000000" class=""></path>
<circle xmlns="http://www.w3.org/2000/svg" style="" cx="263.491" cy="456.77" r="18.963" fill="#7ED3E9" data-original="#7ed3e9"></circle>
<path xmlns="http://www.w3.org/2000/svg" style="" d="M229.247,473.42L38.581,282.754c-4.856-4.856-4.856-12.73,0-17.586l33.309-33.309  c4.856-4.856,12.73-4.856,17.586,0l190.666,190.666c4.856,4.856,4.856,12.73,0,17.586l-33.309,33.309  C241.977,478.276,234.103,478.276,229.247,473.42z" fill="#EAEAEA" data-original="#eaeaea" class=""></path>
<path xmlns="http://www.w3.org/2000/svg" style="" d="M280.142,422.525l-8.488-8.488c-0.282,0.351-0.582,0.692-0.908,1.018  l-33.309,33.309c-4.856,4.856-12.73,4.856-17.586,0L37.673,266.186c-3.923,4.883-3.623,12.038,0.908,16.568L229.247,473.42  c4.856,4.856,12.73,4.856,17.586,0l33.309-33.309C284.998,435.255,284.998,427.381,280.142,422.525z" fill="#000000" data-original="#000000" class=""></path>
<path xmlns="http://www.w3.org/2000/svg" style="" d="M133.793,207.617l-84.038-84.038c-3.862-3.862-3.862-10.122,0-13.984l47.274-47.274  c3.862-3.861,10.122-3.861,13.984,0l84.038,84.038c3.862,3.862,3.862,10.122,0,13.984l-47.274,47.274  C143.915,211.479,137.654,211.479,133.793,207.617z" fill="#6A95E6" data-original="#6a95e6" class=""></path>
<rect xmlns="http://www.w3.org/2000/svg" x="114.909" y="91.655" transform="matrix(-0.7071 -0.7071 0.7071 -0.7071 113.5281 316.9636)" style="" width="15" height="86.629" fill="#000000" data-original="#000000" class=""></rect>
<rect xmlns="http://www.w3.org/2000/svg" x="275.211" y="311.206" transform="matrix(-0.7071 -0.7071 0.7071 -0.7071 297.268 760.5441)" style="" width="61.873" height="15" fill="#3F4C58" data-original="#3f4c58" class=""></rect>
<path xmlns="http://www.w3.org/2000/svg" style="" d="M304.383,378.208l84.038,84.038c3.862,3.862,10.122,3.862,13.984,0l47.274-47.274  c3.862-3.862,3.862-10.122,0-13.984l-84.038-84.038c-3.862-3.861-10.122-3.861-13.984,0l-47.274,47.274  C300.521,368.086,300.521,374.346,304.383,378.208z" fill="#6A95E6" data-original="#6a95e6" class=""></path>
<rect xmlns="http://www.w3.org/2000/svg" x="369.566" y="346.275" transform="matrix(-0.7071 -0.7071 0.7071 -0.7071 368.2109 931.698)" style="" width="15" height="86.629" fill="#000000" data-original="#000000" class=""></rect>
<g xmlns="http://www.w3.org/2000/svg">
	<path style="" d="M302.107,118.325c-1.919,0-3.838-0.732-5.303-2.196c-2.929-2.929-2.929-7.678-0.001-10.606   l5.93-5.931c2.929-2.93,7.677-2.929,10.607-0.001c2.929,2.929,2.929,7.678,0,10.606l-5.93,5.931   C305.946,117.593,304.026,118.325,302.107,118.325z" fill="#3F4C58" data-original="#3f4c58" class=""></path>
	<path style="" d="M401.175,217.393c-1.919,0-3.838-0.732-5.303-2.196c-2.929-2.929-2.929-7.678,0-10.606l5.93-5.931   c2.929-2.93,7.677-2.929,10.607-0.001c2.929,2.929,2.929,7.678,0.001,10.606l-5.93,5.931   C405.015,216.661,403.095,217.393,401.175,217.393z" fill="#3F4C58" data-original="#3f4c58" class=""></path>
	<path style="" d="M351.41,180.195c-5.156,0.001-10.176-2.039-13.871-5.734c-4.437-4.438-6.487-10.788-5.484-16.987   c0.662-4.089,4.517-6.87,8.602-6.205c4.089,0.661,6.868,4.512,6.206,8.602c-0.239,1.478,0.229,2.93,1.284,3.985   c1.053,1.054,2.502,1.516,3.981,1.283c4.087-0.669,7.939,2.117,8.601,6.206c0.661,4.089-2.118,7.939-6.207,8.601   C353.486,180.113,352.445,180.195,351.41,180.195z" fill="#3F4C58" data-original="#3f4c58" class=""></path>
</g>
<circle xmlns="http://www.w3.org/2000/svg" style="" cx="159.361" cy="352.64" r="18.963" fill="#7ED3E9" data-original="#7ed3e9"></circle>
<g xmlns="http://www.w3.org/2000/svg">
</g>
<g xmlns="http://www.w3.org/2000/svg">
</g>
<g xmlns="http://www.w3.org/2000/svg">
</g>
<g xmlns="http://www.w3.org/2000/svg">
</g>
<g xmlns="http://www.w3.org/2000/svg">
</g>
<g xmlns="http://www.w3.org/2000/svg">
</g>
<g xmlns="http://www.w3.org/2000/svg">
</g>
<g xmlns="http://www.w3.org/2000/svg">
</g>
<g xmlns="http://www.w3.org/2000/svg">
</g>
<g xmlns="http://www.w3.org/2000/svg">
</g>
<g xmlns="http://www.w3.org/2000/svg">
</g>
<g xmlns="http://www.w3.org/2000/svg">
</g>
<g xmlns="http://www.w3.org/2000/svg">
</g>
<g xmlns="http://www.w3.org/2000/svg">
</g>
<g xmlns="http://www.w3.org/2000/svg">
</g>
</g></svg>