<?xml version="1.0" encoding="utf-8"?>
<!-- Generator: Adobe Illustrator 16.0.0, SVG Export Plug-In . SVG Version: 6.00 Build 0)  -->
<!DOCTYPE svg PUBLIC "-//W3C//DTD SVG 1.1//EN" "http://www.w3.org/Graphics/SVG/1.1/DTD/svg11.dtd">
<svg version="1.1" id="Layer_1" xmlns:v="https://vecta.io/nano"
	 xmlns="http://www.w3.org/2000/svg" xmlns:xlink="http://www.w3.org/1999/xlink" x="0px" y="0px" width="252.365px"
	 height="37.5px" viewBox="0 0 252.365 37.5" enable-background="new 0 0 252.365 37.5" xml:space="preserve">
<g>
	<g>
		<path id="B" fill="#FFFFFF" d="M33.825,10.542c-0.055,0.955-0.177,1.755-0.367,2.4c-0.19,0.645-0.46,1.163-0.81,1.555
			c-0.353,0.396-0.806,0.688-1.311,0.846c-0.524,0.171-1.151,0.256-1.881,0.256h-6.221v-1.387h6.175
			c0.489,0,0.901-0.034,1.235-0.104s0.611-0.192,0.833-0.367s0.398-0.41,0.53-0.705c0.132-0.295,0.241-0.664,0.326-1.106h-9.146
			c0.054-0.939,0.185-1.732,0.391-2.376c0.206-0.645,0.489-1.165,0.85-1.563c0.354-0.392,0.804-0.687,1.305-0.855
			c0.508-0.176,1.089-0.263,1.742-0.263h6.314v1.375h-6.384c-0.435,0-0.808,0.056-1.119,0.163c-0.291,0.098-0.559,0.253-0.786,0.46
			c-0.217,0.203-0.39,0.449-0.507,0.723c-0.125,0.283-0.222,0.6-0.292,0.949H33.825z"/>
	</g>
	<g>
		<path id="B_1_" fill="#FFFFFF" d="M52.466,10.542c-0.055,0.955-0.177,1.755-0.367,2.4c-0.19,0.645-0.46,1.163-0.81,1.555
			c-0.353,0.396-0.806,0.688-1.311,0.846c-0.524,0.171-1.151,0.256-1.881,0.256h-6.221v-1.387h6.175
			c0.489,0,0.901-0.034,1.235-0.104s0.611-0.192,0.833-0.367c0.222-0.175,0.398-0.41,0.53-0.705s0.241-0.664,0.326-1.106h-9.146
			c0.054-0.939,0.185-1.732,0.391-2.376c0.206-0.645,0.489-1.165,0.85-1.563c0.355-0.392,0.804-0.687,1.305-0.855
			c0.508-0.176,1.089-0.263,1.742-0.263h6.314v1.375h-6.384c-0.435,0-0.808,0.056-1.119,0.163c-0.292,0.098-0.559,0.253-0.786,0.46
			c-0.217,0.203-0.39,0.449-0.507,0.723c-0.125,0.283-0.222,0.6-0.292,0.949H52.466z"/>
	</g>
	<path fill="#FFFFFF" d="M71.095,15.6H60.539v-4.393c0-0.676,0.096-1.281,0.287-1.816c0.19-0.535,0.469-0.991,0.838-1.363
		s0.823-0.658,1.363-0.856c0.54-0.197,1.159-0.297,1.857-0.297h6.211v1.375h-6.163c-0.497,0-0.923,0.043-1.276,0.128
		c-0.353,0.085-0.648,0.22-0.885,0.402s-0.419,0.419-0.548,0.71s-0.22,0.644-0.272,1.055h9.146v1.387h-9.182v2.283h9.182
		L71.095,15.6L71.095,15.6z M89.992,14.808l-0.861,1.06l-4.95-3.938h-3.671v3.67h-1.375v-4.393c0-0.676,0.096-1.281,0.285-1.816
		c0.191-0.535,0.472-0.991,0.84-1.363c0.369-0.372,0.822-0.658,1.363-0.856c0.539-0.197,1.158-0.297,1.857-0.297h6.21v5.057h-3.332
		L89.992,14.808z M88.326,10.542V8.247h-5.021c-0.265,0.001-0.527,0.029-0.786,0.082c-0.285,0.059-0.557,0.171-0.798,0.332
		c-0.257,0.167-0.485,0.4-0.687,0.699c-0.203,0.299-0.352,0.693-0.443,1.183L88.326,10.542L88.326,10.542z M108.503,6.872v4.393
		c0,0.676-0.094,1.281-0.284,1.816c-0.175,0.512-0.462,0.978-0.839,1.363c-0.369,0.373-0.823,0.658-1.363,0.856
		c-0.54,0.197-1.155,0.297-1.848,0.297h-6.221V6.872H108.503z M107.142,8.247h-7.807v5.965h4.789c0.559,0,1.026-0.053,1.408-0.156
		c0.35-0.088,0.672-0.266,0.934-0.514c0.24-0.236,0.412-0.546,0.519-0.926s0.157-0.851,0.157-1.41V8.247z M28.565,20.852v4.395
		c0,0.676-0.095,1.279-0.286,1.816c-0.191,0.535-0.47,0.99-0.839,1.363c-0.369,0.372-0.823,0.657-1.363,0.855
		c-0.54,0.197-1.156,0.297-1.847,0.297h-6.222v-4.393c0-0.676,0.097-1.281,0.292-1.817c0.179-0.511,0.467-0.976,0.845-1.363
		c0.369-0.372,0.823-0.657,1.363-0.854c0.54-0.196,1.155-0.299,1.847-0.299H28.565z M27.202,22.227h-4.8
		c-0.552,0-1.02,0.057-1.404,0.164c-0.384,0.107-0.697,0.281-0.938,0.52c-0.241,0.236-0.414,0.548-0.519,0.934
		c-0.105,0.383-0.157,0.852-0.157,1.402v2.945h4.8c0.56,0,1.029-0.051,1.41-0.155c0.381-0.104,0.691-0.274,0.932-0.515
		c0.241-0.236,0.414-0.545,0.519-0.926s0.157-0.851,0.157-1.41V22.227z M40.343,20.852v4.395c0,0.676-0.097,1.279-0.291,1.816
		c-0.194,0.535-0.476,0.99-0.845,1.363c-0.369,0.372-0.821,0.657-1.357,0.855c-0.536,0.197-1.149,0.297-1.841,0.297h-6.104v-8.727
		h1.386v7.34h3.588c0.792,0,1.45-0.049,1.975-0.146c0.525-0.097,0.944-0.258,1.258-0.482c0.314-0.226,0.538-0.527,0.67-0.907
		c0.132-0.382,0.198-0.854,0.198-1.423v-4.381H40.343L40.343,20.852z M51.609,22.227H47.17v7.354h-1.387v-7.354
		c-0.924,0-1.627,0.133-2.108,0.396c-0.202,0.107-0.369,0.234-0.501,0.378c-0.132,0.144-0.243,0.338-0.332,0.583
		c-0.089,0.245-0.16,0.557-0.21,0.932l-0.122,1.428l-1.352-0.082c0.046-0.932,0.161-1.715,0.344-2.354
		c0.183-0.638,0.448-1.15,0.798-1.543c0.357-0.396,0.813-0.689,1.322-0.851c0.532-0.175,1.167-0.263,1.905-0.263h6.082V22.227z
		 M62.479,28.787l-0.862,1.061l-4.951-3.938h-3.67v3.67h-1.375v-4.395c0-0.676,0.095-1.279,0.286-1.815
		c0.175-0.513,0.461-0.978,0.839-1.362c0.369-0.371,0.823-0.658,1.363-0.855c0.54-0.196,1.159-0.297,1.858-0.297h6.21v5.057h-3.332
		L62.479,28.787z M60.813,24.521v-2.295h-5.021c-0.264,0.002-0.527,0.028-0.786,0.082c-0.276,0.055-0.542,0.166-0.798,0.332
		c-0.273,0.185-0.507,0.422-0.687,0.697c-0.202,0.301-0.35,0.693-0.443,1.184H60.813L60.813,24.521z M74.048,29.579H63.492v-4.394
		c0-0.676,0.096-1.28,0.286-1.816c0.175-0.512,0.462-0.977,0.839-1.363c0.369-0.371,0.823-0.658,1.363-0.855
		c0.54-0.195,1.159-0.297,1.857-0.297h6.211v1.375h-6.164c-0.496,0-0.922,0.043-1.275,0.127c-0.354,0.086-0.648,0.222-0.885,0.402
		c-0.237,0.182-0.419,0.42-0.549,0.711c-0.141,0.338-0.231,0.691-0.272,1.055h9.146v1.388h-9.18v2.282h9.18V29.579L74.048,29.579z
		 M85.768,29.579h-1.363v-3.67h-7.806v3.67h-1.387v-4.394c0-0.684,0.097-1.293,0.291-1.828c0.194-0.537,0.477-0.99,0.846-1.362
		s0.822-0.656,1.363-0.851c0.539-0.195,1.154-0.293,1.847-0.293h6.21L85.768,29.579L85.768,29.579z M84.405,22.227h-4.788
		c-0.552,0-1.004,0.031-1.357,0.094c-0.352,0.064-0.641,0.179-0.86,0.346s-0.386,0.398-0.495,0.698
		c-0.107,0.299-0.189,0.687-0.244,1.157h7.748L84.405,22.227L84.405,22.227z M97.664,29.579H87.107v-4.394
		c0-0.684,0.098-1.293,0.292-1.828c0.195-0.537,0.476-0.99,0.845-1.362s0.823-0.656,1.363-0.851c0.54-0.195,1.155-0.293,1.848-0.293
		h6.209v1.375H91.5c-0.552,0-1.02,0.056-1.402,0.164c-0.385,0.106-0.695,0.28-0.934,0.519c-0.235,0.237-0.41,0.548-0.519,0.933
		c-0.108,0.383-0.163,0.852-0.163,1.403v2.946h9.182V29.579z M109.359,29.579h-1.361v-3.67h-7.816v3.67h-1.375v-8.728h1.375v3.67
		h7.816v-3.67h1.361V29.579z M117.08,24.303v5.301c-0.41-0.017-0.819-0.073-1.221-0.172c-0.322-0.088-0.582-0.227-0.773-0.414
		c-0.203-0.207-0.344-0.467-0.406-0.748c-0.08-0.312-0.121-0.705-0.125-1.184v-2.097h-1.146v4.524h-0.688v-5.213h2.526v3.082
		c-0.004,0.207,0.018,0.416,0.063,0.619c0.041,0.169,0.105,0.311,0.197,0.424c0.097,0.115,0.218,0.207,0.354,0.268
		c0.146,0.066,0.322,0.119,0.527,0.156v-4.549h0.692V24.303L117.08,24.303z M112.718,17.191h2.195c0.338,0,0.641,0.047,0.907,0.143
		c0.257,0.088,0.488,0.231,0.683,0.419c0.188,0.185,0.33,0.412,0.429,0.682c0.099,0.269,0.147,0.578,0.147,0.923v3.109h-2.195
		c-0.338,0-0.641-0.05-0.908-0.146c-0.256-0.09-0.488-0.233-0.682-0.422c-0.188-0.186-0.33-0.412-0.428-0.682
		c-0.101-0.271-0.148-0.578-0.148-0.925V17.191z M113.405,17.872v2.399c0,0.274,0.026,0.51,0.081,0.701s0.141,0.35,0.26,0.469
		c0.117,0.121,0.273,0.207,0.467,0.261c0.229,0.058,0.466,0.083,0.701,0.078h1.475v-2.399c0-0.278-0.026-0.515-0.078-0.704
		c-0.044-0.176-0.133-0.335-0.257-0.467c-0.118-0.119-0.272-0.207-0.464-0.259c-0.229-0.057-0.467-0.084-0.705-0.079H113.405z
		 M117.08,10.138v5.3c-0.488-0.027-0.896-0.084-1.221-0.172c-0.324-0.088-0.582-0.226-0.773-0.414
		c-0.203-0.207-0.344-0.466-0.406-0.748c-0.08-0.312-0.121-0.705-0.125-1.184v-2.096h-1.146v4.525h-0.688v-5.213h2.526v3.082
		c0,0.244,0.021,0.45,0.063,0.619c0.033,0.154,0.102,0.299,0.197,0.423c0.097,0.115,0.218,0.208,0.354,0.268
		c0.146,0.066,0.322,0.119,0.527,0.158v-4.549H117.08L117.08,10.138z M117.08,7.58v0.688h-4.36V7.58H117.08z"/>
	<g transform="matrix(-2.575623 -.432785 .432785 -2.575623 92.81385 839.56141)">
		<path fill="#FFFFFF" d="M83.149,303.315l-0.341-0.162l-0.055,0.463l0.337,0.189L83.149,303.315z M82.789,303.143l-0.332-0.157
			l-0.02,0.452l0.297,0.167L82.789,303.143z"/>
		<path fill="#FFFFFF" d="M83.75,303.484l-0.06,0.263l-0.144-0.137l0.019-0.1l-0.396-0.188l-0.058,0.491l0.358,0.2l0.02-0.099
			l0.004,0.002l0.163-0.015l-0.107,0.468l0.329,0.174l-0.148,0.203l-0.02-0.015l-0.048,0.066l0.067,0.05l0.048-0.066l-0.02-0.015
			l0.152-0.207l0.193,0.102l0.178-0.96L83.75,303.484L83.75,303.484L83.75,303.484z M83.496,303.87l0.039-0.208l0.142,0.136
			l-0.015,0.065L83.496,303.87z M84.291,303.68l0.412,0.027l-0.499-0.212l-0.439-0.034L84.291,303.68z M85.455,304.446l-0.621-0.308
			l-0.018,0.067l-0.004-0.002l-0.206,0l0.098-0.472l-0.405-0.02l-0.178,0.96l0.093-0.015l0.022,0.234l-0.024,0.002l0.008,0.082
			l0.083-0.008l-0.007-0.082l-0.025,0.002l-0.022-0.237l0.276-0.047l0.027-0.131l0.147,0.167l-0.014,0.048L85.246,305
			L85.455,304.446L85.455,304.446z M84.566,304.395l0.027-0.133l0.205,0.01l-0.082,0.295L84.566,304.395z"/>
		<path fill="#FFFFFF" d="M86.161,304.797l-0.226,0.592l0.02,0.011l0.008,0.004l0.746,0.418l0.31-0.6l-0.839-0.416l-0.007-0.004
			L86.161,304.797z M85.261,305.011l0.006,0.004l0.651,0.364l0.225-0.592l-0.669-0.332l-0.004-0.001l-0.078,0.215L85.261,305.011z"
			/>
	</g>
	<path fill="#FFFFFF" d="M19.53,2.729l-0.217-0.511l-1.212,0.568l0.254,0.492L19.53,2.729z M11.192,28.396l0.763,1.099l0.444-0.334
		l-0.74-1.063L11.192,28.396z M9.058,16.536l-0.55-0.069l-0.119,1.331l0.554,0.029L9.058,16.536L9.058,16.536z M9.782,11.749
		l0.51,0.217l0.551-1.171l-0.494-0.255L9.782,11.749L9.782,11.749z M8.819,14.713l0.542,0.125l0.337-1.251l-0.529-0.165
		L8.819,14.713z M9.744,25.635l0.562,1.215l0.493-0.25l-0.543-1.179L9.744,25.635z M8.798,22.668l0.341,1.292l0.53-0.162
		l-0.33-1.252L8.798,22.668L8.798,22.668z M25.39,1.375l-0.03-0.553L24.03,0.94l0.07,0.551L25.39,1.375z M34.411,2.736l-1.214-0.563
		l-0.212,0.514l1.176,0.543L34.411,2.736z M22.4,1.794l-0.125-0.541l-1.29,0.349l0.165,0.529L22.4,1.794z M31.523,1.57L30.23,1.229
		l-0.121,0.541l1.252,0.331L31.523,1.57z M11.243,8.999l0.466,0.304l0.744-1.062l-0.441-0.335L11.243,8.999L11.243,8.999z
		 M28.474,0.928l-1.332-0.111L27.116,1.37l1.29,0.108L28.474,0.928z M30.339,35.709l0.123,0.564l1.344-0.348l-0.164-0.556
		L30.339,35.709z M32.898,34.823l0.212,0.514l1.216-0.555l-0.249-0.49L32.898,34.823z M13.158,6.543l0.407,0.376l0.915-0.916
		l-0.376-0.405L13.158,6.543L13.158,6.543z M15.468,4.449l0.335,0.441l1.059-0.745L16.561,3.68L15.468,4.449z M18.015,34.646
		l1.206,0.572l0.221-0.511l-1.168-0.554L18.015,34.646L18.015,34.646z M15.391,32.969l1.089,0.773l0.305-0.465l-1.056-0.75
		L15.391,32.969z M13.502,30.489l-0.409,0.374l0.939,0.951l0.381-0.403L13.502,30.489z M20.856,35.834l1.34,0.367l0.133-0.563
		l-1.298-0.356L20.856,35.834z M24.016,36.539l1.382,0.131l0.034-0.574l-1.341-0.129L24.016,36.539z M27.228,36.107l0.022,0.576
		l1.384-0.107l-0.065-0.572L27.228,36.107L27.228,36.107z"/>
</g>
<g id="Base_Art">
	<path fill="#FFFFFF" d="M170.482,13.261l1.618-8.548h2.466L171.9,16.726h-2.492l-1.955-8.038l-1.956,8.038h-2.493L160.34,4.713
		h2.466l1.627,8.534l1.977-8.534h2.098L170.482,13.261z"/>
	<path fill="#FFFFFF" d="M174.624,12.18c-0.015-0.82,0.157-1.633,0.511-2.374c0.318-0.668,0.83-1.226,1.465-1.604
		c0.682-0.39,1.452-0.586,2.234-0.57c1.205,0,2.188,0.369,2.951,1.106c0.762,0.738,1.188,1.738,1.275,3.005l0.018,0.611
		c0,1.369-0.384,2.469-1.148,3.297c-0.766,0.827-1.791,1.241-3.078,1.241s-2.314-0.414-3.081-1.238
		c-0.769-0.826-1.151-1.946-1.151-3.362L174.624,12.18z M177.009,12.35c0,0.847,0.158,1.496,0.477,1.945
		c0.58,0.753,1.658,0.893,2.411,0.314c0.116-0.091,0.224-0.196,0.313-0.314c0.324-0.442,0.486-1.152,0.486-2.128
		c0-0.831-0.162-1.476-0.486-1.933c-0.311-0.453-0.833-0.71-1.381-0.683c-0.537-0.022-1.05,0.236-1.354,0.683
		c-0.32,0.457-0.479,1.162-0.479,2.116H177.009z"/>
	<path fill="#FFFFFF" d="M189.05,10.036c-0.284-0.042-0.572-0.063-0.859-0.065c-0.902,0-1.494,0.305-1.779,0.916v5.839h-2.379V7.798
		h2.259l0.065,1.064c0.479-0.82,1.144-1.23,1.988-1.23c0.254-0.001,0.502,0.034,0.742,0.107L189.05,10.036z"/>
	<path fill="#FFFFFF" d="M192.21,16.726h-2.396V4.052h2.396V16.726z"/>
	<path fill="#FFFFFF" d="M193.293,12.197c0-1.391,0.311-2.5,0.935-3.326c0.6-0.814,1.563-1.278,2.574-1.237
		c0.825-0.018,1.617,0.34,2.146,0.974V4.052h2.396v12.673h-2.159l-0.116-0.948c-0.543,0.718-1.396,1.134-2.294,1.115
		c-0.995,0.028-1.942-0.436-2.53-1.241C193.611,14.823,193.293,13.671,193.293,12.197z M195.677,12.367
		c0,0.84,0.146,1.484,0.438,1.932c0.271,0.439,0.758,0.695,1.271,0.673c0.736,0,1.256-0.312,1.561-0.937v-3.543
		c-0.297-0.627-0.813-0.941-1.543-0.941c-1.152,0-1.727,0.938-1.727,2.814V12.367z"/>
	<path fill="#FFFFFF" d="M212.005,13.574c0.022-0.418-0.162-0.821-0.495-1.076c-0.329-0.25-0.923-0.515-1.779-0.792
		c-0.702-0.213-1.386-0.488-2.038-0.82c-1.367-0.738-2.05-1.73-2.05-2.979c-0.007-0.623,0.186-1.232,0.55-1.737
		c0.403-0.536,0.953-0.947,1.582-1.187c0.729-0.297,1.512-0.445,2.301-0.437c0.788-0.014,1.572,0.145,2.293,0.466
		c0.635,0.281,1.181,0.737,1.564,1.315c0.375,0.574,0.568,1.246,0.557,1.93h-2.484c0.027-0.481-0.157-0.95-0.51-1.279
		c-0.348-0.307-0.835-0.459-1.461-0.459c-0.604,0-1.074,0.128-1.41,0.383c-0.324,0.234-0.514,0.612-0.504,1.011
		c0.008,0.412,0.233,0.788,0.592,0.989c0.541,0.329,1.128,0.579,1.738,0.742c1.408,0.423,2.434,0.951,3.078,1.582
		c0.637,0.612,0.987,1.462,0.965,2.344c0.037,0.963-0.408,1.879-1.188,2.447c-0.79,0.592-1.85,0.887-3.176,0.885
		c-0.87,0.011-1.729-0.162-2.525-0.509c-0.699-0.288-1.301-0.768-1.737-1.383c-0.401-0.606-0.608-1.32-0.592-2.048h2.481
		c0,1.327,0.793,1.99,2.376,1.99c0.486,0.03,0.972-0.098,1.382-0.36C211.844,14.361,212.03,13.976,212.005,13.574z"/>
	<path fill="#FFFFFF" d="M223.541,12.346c0,1.376-0.313,2.477-0.937,3.306c-0.587,0.807-1.534,1.272-2.53,1.241
		c-0.836,0.03-1.635-0.315-2.188-0.941v4.208h-2.383V7.798h2.209l0.084,0.874c0.551-0.68,1.389-1.065,2.262-1.04
		c1.099,0,1.958,0.408,2.57,1.221c0.613,0.814,0.921,1.935,0.914,3.362L223.541,12.346z M221.155,12.164
		c0-0.834-0.146-1.477-0.441-1.929c-0.271-0.444-0.764-0.706-1.283-0.684c-0.749,0-1.263,0.287-1.544,0.86v3.674
		c0.293,0.59,0.811,0.885,1.561,0.885C220.585,14.968,221.155,14.033,221.155,12.164z"/>
	<path fill="#FFFFFF" d="M229.683,16.726c-0.119-0.249-0.199-0.516-0.238-0.791c-0.571,0.64-1.396,0.995-2.252,0.965
		c-0.797,0.03-1.572-0.241-2.179-0.759c-0.558-0.477-0.878-1.179-0.858-1.914c0-0.947,0.348-1.673,1.05-2.176
		c0.703-0.504,1.716-0.759,3.039-0.768h1.099v-0.521c0.019-0.359-0.095-0.71-0.317-0.99c-0.212-0.248-0.548-0.372-1.004-0.372
		c-0.339-0.02-0.675,0.083-0.944,0.289c-0.23,0.197-0.355,0.49-0.344,0.791h-2.38c0-0.518,0.169-1.022,0.479-1.436
		c0.347-0.463,0.816-0.821,1.353-1.036c0.623-0.259,1.291-0.386,1.965-0.376c1.099,0,1.973,0.276,2.62,0.83
		c0.647,0.552,0.97,1.33,0.97,2.332v3.871c0,0.846,0.117,1.488,0.354,1.922v0.139H229.683z M227.706,15.067
		c0.339,0.003,0.675-0.078,0.976-0.234c0.275-0.14,0.506-0.36,0.658-0.632v-1.536h-0.892c-1.194,0-1.829,0.414-1.906,1.238v0.141
		c-0.007,0.278,0.107,0.547,0.313,0.734c0.239,0.203,0.543,0.306,0.857,0.289H227.706z"/>
	<path fill="#FFFFFF" d="M236.777,14.968c0.389,0.017,0.771-0.113,1.072-0.364c0.275-0.245,0.434-0.597,0.43-0.965h2.238
		c-0.004,0.591-0.177,1.168-0.496,1.663c-0.328,0.505-0.79,0.911-1.334,1.171c-0.582,0.282-1.222,0.425-1.868,0.417
		c-1.276,0-2.284-0.406-3.021-1.215c-0.738-0.812-1.105-1.933-1.105-3.363v-0.157c0-1.375,0.365-2.473,1.098-3.293
		c0.731-0.82,1.734-1.23,3.012-1.23c1.117,0,2.014,0.318,2.686,0.954c0.675,0.636,1.016,1.485,1.029,2.548h-2.238
		c0.005-0.417-0.146-0.824-0.43-1.131c-0.641-0.605-1.65-0.577-2.254,0.063c-0.031,0.034-0.064,0.071-0.096,0.108
		c-0.281,0.405-0.423,1.064-0.423,1.979v0.247c0,0.924,0.138,1.583,0.42,1.978C235.793,14.782,236.277,15.005,236.777,14.968z"/>
	<path fill="#FFFFFF" d="M245.48,16.893c-1.309,0-2.377-0.403-3.199-1.204c-0.821-0.804-1.235-1.873-1.235-3.21v-0.232
		c-0.013-0.832,0.165-1.654,0.521-2.405c0.319-0.678,0.831-1.246,1.476-1.634c0.656-0.389,1.41-0.588,2.174-0.574
		c1.221,0,2.183,0.385,2.884,1.155c0.701,0.77,1.054,1.862,1.054,3.275v0.972h-5.688c0.054,0.538,0.304,1.038,0.699,1.403
		c0.403,0.357,0.928,0.546,1.466,0.529c0.836,0.041,1.639-0.328,2.154-0.989l1.176,1.308c-0.371,0.518-0.871,0.926-1.452,1.186
		C246.871,16.761,246.179,16.902,245.48,16.893z M245.207,9.551c-0.439-0.017-0.861,0.162-1.16,0.487
		c-0.325,0.392-0.521,0.875-0.566,1.384h3.337v-0.198c0.017-0.449-0.136-0.889-0.429-1.23
		C246.074,9.684,245.646,9.522,245.207,9.551z"/>
	<path fill="#FFFFFF" d="M170.482,30.059l1.618-8.548h2.466L171.9,33.525h-2.492l-1.955-8.037l-1.956,8.037h-2.493l-2.663-12.017
		h2.466l1.627,8.533l1.977-8.533h2.098L170.482,30.059z"/>
	<path fill="#FFFFFF" d="M179.094,33.681c-1.31,0-2.376-0.402-3.198-1.204c-0.823-0.803-1.234-1.874-1.234-3.21v-0.231
		c-0.014-0.832,0.164-1.654,0.521-2.405c0.319-0.677,0.832-1.247,1.474-1.633c0.658-0.392,1.412-0.588,2.176-0.575
		c1.221,0,2.184,0.387,2.885,1.154c0.7,0.77,1.051,1.863,1.051,3.277v0.972h-5.686c0.055,0.54,0.303,1.037,0.698,1.404
		c0.404,0.356,0.933,0.546,1.474,0.527c0.836,0.038,1.638-0.329,2.154-0.989l1.17,1.313c-0.37,0.518-0.871,0.926-1.453,1.186
		C180.488,33.553,179.794,33.693,179.094,33.681z M178.821,26.363c-0.435-0.018-0.855,0.159-1.149,0.48
		c-0.326,0.393-0.524,0.875-0.566,1.386h3.316v-0.198c0.02-0.449-0.135-0.889-0.428-1.23
		C179.683,26.494,179.257,26.335,178.821,26.363z"/>
	<path fill="#FFFFFF" d="M187.721,33.681c-1.308,0-2.374-0.402-3.196-1.204c-0.822-0.803-1.234-1.874-1.234-3.21v-0.231
		c-0.014-0.832,0.163-1.654,0.521-2.405c0.319-0.677,0.832-1.247,1.474-1.633c0.657-0.392,1.41-0.588,2.175-0.575
		c1.222,0,2.183,0.387,2.884,1.154c0.701,0.77,1.052,1.863,1.052,3.277v0.972h-5.697c0.055,0.54,0.304,1.037,0.698,1.404
		c0.406,0.356,0.934,0.546,1.475,0.527c0.836,0.038,1.639-0.329,2.154-0.989l1.17,1.313c-0.369,0.518-0.871,0.926-1.451,1.186
		C189.107,33.549,188.419,33.691,187.721,33.681z M187.449,26.363c-0.435-0.018-0.856,0.159-1.15,0.48
		c-0.324,0.393-0.523,0.875-0.566,1.386h3.318v-0.198c0.016-0.449-0.138-0.889-0.43-1.23
		C188.31,26.494,187.884,26.335,187.449,26.363z"/>
	<path fill="#FFFFFF" d="M195.484,29.943l-0.857,0.857v2.725h-2.385V20.848h2.385v7.023l0.461-0.592l2.28-2.684h2.87l-3.229,3.723
		l3.51,5.207h-2.741L195.484,29.943z"/>
	<path fill="#FFFFFF" d="M130.195,17.28c-0.023-1.785,0.313-3.556,0.988-5.208h-4.031v21.453h21.473V29.48l-0.033-0.023
		c-6.81,2.799-14.598-0.452-17.395-7.262c-0.643-1.561-0.98-3.229-1-4.915H130.195z"/>
	<path fill="#FFFFFF" d="M156.841,17.139c-0.006-7.36-5.973-13.324-13.333-13.32c-5.398,0.002-10.262,3.261-12.317,8.254h0.023
		c9.601,0,17.389,7.773,17.406,17.373C153.595,27.379,156.839,22.523,156.841,17.139z"/>
</g>
<rect x="120.098" y="-1.43" fill="#FFFFFF" width="0.723" height="40.359"/>
</svg>
