<?xml version="1.0" encoding="utf-8"?>
<!-- Generator: Adobe Illustrator 16.0.0, SVG Export Plug-In . SVG Version: 6.00 Build 0)  -->
<!DOCTYPE svg PUBLIC "-//W3C//DTD SVG 1.1//EN" "http://www.w3.org/Graphics/SVG/1.1/DTD/svg11.dtd">
<svg version="1.1" id="Layer_1" xmlns:v="https://vecta.io/nano"
	 xmlns="http://www.w3.org/2000/svg" xmlns:xlink="http://www.w3.org/1999/xlink" x="0px" y="0px" width="117.917px"
	 height="37.5px" viewBox="0 0 117.917 37.5" enable-background="new 0 0 117.917 37.5" xml:space="preserve">
<g>
	<path id="B" fill="#FFFFFF" d="M33.825,10.628c-0.055,0.955-0.177,1.755-0.367,2.4s-0.46,1.163-0.81,1.555
		c-0.353,0.395-0.806,0.687-1.311,0.845c-0.524,0.171-1.151,0.256-1.881,0.256h-6.221v-1.386h6.175c0.489,0,0.901-0.035,1.235-0.105
		c0.334-0.07,0.611-0.192,0.833-0.367c0.222-0.175,0.398-0.41,0.53-0.705c0.132-0.295,0.241-0.664,0.326-1.107h-9.146
		c0.054-0.939,0.185-1.732,0.391-2.376c0.206-0.644,0.489-1.165,0.85-1.562c0.354-0.392,0.804-0.687,1.305-0.856
		c0.508-0.175,1.089-0.262,1.742-0.262h6.314v1.375h-6.384c-0.435,0-0.808,0.055-1.119,0.163c-0.291,0.097-0.559,0.253-0.786,0.46
		c-0.217,0.203-0.39,0.449-0.507,0.722c-0.125,0.284-0.222,0.6-0.292,0.95H33.825z"/>
</g>
<g>
	<path id="B_1_" fill="#FFFFFF" d="M52.466,10.628c-0.055,0.955-0.177,1.755-0.367,2.4s-0.46,1.163-0.81,1.555
		c-0.353,0.395-0.806,0.687-1.311,0.845c-0.524,0.171-1.151,0.256-1.881,0.256h-6.221v-1.386h6.175c0.489,0,0.901-0.035,1.235-0.105
		c0.334-0.07,0.611-0.192,0.833-0.367c0.222-0.175,0.398-0.41,0.53-0.705s0.241-0.664,0.326-1.107h-9.146
		c0.054-0.939,0.185-1.732,0.391-2.376c0.206-0.644,0.489-1.165,0.85-1.562c0.355-0.392,0.804-0.687,1.305-0.856
		c0.508-0.175,1.089-0.262,1.742-0.262h6.314v1.375h-6.384c-0.435,0-0.808,0.055-1.119,0.163c-0.292,0.097-0.559,0.253-0.786,0.46
		c-0.217,0.203-0.39,0.449-0.507,0.722c-0.125,0.284-0.222,0.6-0.292,0.95H52.466z"/>
</g>
<path fill="#FFFFFF" d="M71.095,15.685H60.539v-4.392c0-0.676,0.096-1.282,0.287-1.817c0.19-0.535,0.469-0.991,0.838-1.363
	c0.369-0.372,0.823-0.658,1.363-0.856c0.54-0.198,1.159-0.297,1.857-0.297h6.211v1.375h-6.163c-0.497,0-0.923,0.043-1.276,0.128
	s-0.648,0.219-0.885,0.402c-0.236,0.183-0.419,0.419-0.548,0.71s-0.22,0.643-0.272,1.055h9.146v1.386h-9.181V14.3h9.181
	L71.095,15.685L71.095,15.685z M89.992,14.893l-0.861,1.06l-4.951-3.938h-3.67v3.67h-1.375v-4.392c0-0.676,0.095-1.282,0.285-1.817
	c0.191-0.535,0.471-0.991,0.84-1.363c0.369-0.372,0.822-0.658,1.363-0.856c0.539-0.198,1.158-0.297,1.857-0.297h6.21v5.056h-3.332
	L89.992,14.893z M88.326,10.628V8.333h-5.021c-0.265,0.001-0.527,0.029-0.786,0.082c-0.285,0.058-0.556,0.171-0.798,0.332
	c-0.257,0.167-0.485,0.4-0.687,0.699c-0.203,0.299-0.351,0.693-0.443,1.183L88.326,10.628L88.326,10.628z M108.503,6.958v4.392
	c0,0.676-0.094,1.282-0.284,1.817c-0.175,0.511-0.462,0.977-0.839,1.363c-0.369,0.373-0.823,0.658-1.363,0.856
	c-0.54,0.198-1.155,0.297-1.848,0.297h-6.221V6.958H108.503z M107.142,8.333h-7.807v5.965h4.789c0.559,0,1.027-0.053,1.408-0.157
	c0.35-0.088,0.672-0.265,0.934-0.513c0.24-0.237,0.412-0.546,0.519-0.926c0.106-0.38,0.157-0.851,0.157-1.41V8.333z M28.565,20.938
	v4.394c0,0.676-0.095,1.28-0.286,1.817c-0.191,0.535-0.47,0.99-0.839,1.363c-0.369,0.372-0.823,0.657-1.363,0.855
	c-0.54,0.197-1.156,0.297-1.847,0.297h-6.222v-4.393c0-0.676,0.097-1.281,0.292-1.817c0.179-0.511,0.467-0.976,0.845-1.363
	c0.369-0.372,0.823-0.657,1.363-0.854s1.155-0.299,1.847-0.299H28.565z M27.202,22.313h-4.8c-0.552,0-1.02,0.056-1.404,0.164
	c-0.384,0.107-0.697,0.281-0.938,0.519c-0.241,0.237-0.414,0.548-0.519,0.933c-0.105,0.383-0.157,0.852-0.157,1.403v2.946h4.8
	c0.56,0,1.029-0.051,1.41-0.156c0.381-0.105,0.691-0.275,0.932-0.514c0.241-0.237,0.414-0.545,0.519-0.926s0.157-0.851,0.157-1.41
	V22.313z M40.343,20.938v4.394c0,0.676-0.097,1.28-0.291,1.817c-0.194,0.535-0.476,0.99-0.845,1.363
	c-0.369,0.372-0.821,0.657-1.357,0.855c-0.536,0.197-1.149,0.297-1.841,0.297h-6.104v-8.727h1.386v7.34h3.588
	c0.792,0,1.45-0.049,1.975-0.146s0.944-0.258,1.258-0.482c0.314-0.226,0.538-0.528,0.67-0.908c0.132-0.381,0.198-0.854,0.198-1.422
	v-4.381H40.343L40.343,20.938z M51.609,22.313H47.17v7.353h-1.387v-7.353c-0.924,0-1.627,0.133-2.108,0.396
	c-0.202,0.107-0.369,0.234-0.501,0.378c-0.132,0.144-0.243,0.338-0.332,0.583c-0.089,0.245-0.16,0.557-0.21,0.932l-0.122,1.428
	l-1.352-0.082c0.046-0.932,0.161-1.715,0.344-2.354c0.183-0.638,0.448-1.15,0.798-1.543c0.357-0.396,0.813-0.69,1.322-0.851
	c0.532-0.175,1.167-0.263,1.905-0.263h6.082V22.313z M62.479,28.873l-0.862,1.061l-4.951-3.938h-3.67v3.67h-1.375v-4.394
	c0-0.676,0.095-1.28,0.286-1.816c0.175-0.512,0.461-0.977,0.839-1.363c0.369-0.371,0.823-0.658,1.363-0.855
	c0.54-0.196,1.159-0.297,1.858-0.297h6.21v5.057h-3.332L62.479,28.873z M60.813,24.607v-2.295h-5.021
	c-0.264,0.002-0.527,0.029-0.786,0.082c-0.276,0.055-0.542,0.166-0.798,0.332c-0.273,0.185-0.507,0.422-0.687,0.698
	c-0.202,0.3-0.35,0.693-0.443,1.183H60.813L60.813,24.607z M74.048,29.665H63.492v-4.394c0-0.676,0.096-1.28,0.286-1.816
	c0.175-0.512,0.462-0.977,0.839-1.363c0.369-0.371,0.823-0.658,1.363-0.855c0.54-0.196,1.159-0.297,1.857-0.297h6.211v1.375h-6.164
	c-0.496,0-0.922,0.043-1.275,0.127c-0.354,0.086-0.648,0.221-0.885,0.402c-0.237,0.182-0.419,0.42-0.549,0.711
	c-0.14,0.337-0.231,0.691-0.272,1.055h9.146v1.387h-9.18v2.283h9.18V29.665L74.048,29.665z M85.768,29.665h-1.363v-3.67h-7.806v3.67
	h-1.387v-4.394c0-0.683,0.097-1.293,0.291-1.828c0.195-0.537,0.477-0.99,0.846-1.362s0.822-0.656,1.363-0.851
	c0.539-0.195,1.154-0.293,1.847-0.293h6.21L85.768,29.665L85.768,29.665z M84.405,22.313h-4.788c-0.552,0-1.004,0.031-1.357,0.094
	c-0.352,0.064-0.641,0.178-0.861,0.345s-0.386,0.399-0.495,0.698c-0.108,0.299-0.19,0.686-0.245,1.158h7.748L84.405,22.313
	L84.405,22.313z M97.664,29.665H87.107v-4.394c0-0.683,0.098-1.293,0.292-1.828c0.195-0.537,0.476-0.99,0.845-1.362
	s0.823-0.656,1.363-0.851c0.54-0.195,1.155-0.293,1.848-0.293h6.209v1.375H91.5c-0.552,0-1.02,0.056-1.403,0.164
	c-0.384,0.107-0.695,0.281-0.933,0.519c-0.236,0.237-0.41,0.548-0.519,0.933c-0.108,0.383-0.163,0.852-0.163,1.403v2.946h9.182
	V29.665z M109.359,29.665h-1.361v-3.67h-7.817v3.67h-1.375v-8.728h1.375v3.67h7.817v-3.67h1.361V29.665z M117.08,24.389v5.301
	c-0.411-0.017-0.82-0.074-1.221-0.172c-0.322-0.088-0.582-0.227-0.773-0.414c-0.203-0.207-0.344-0.467-0.407-0.748
	c-0.08-0.312-0.121-0.705-0.125-1.184v-2.097h-1.147V29.6h-0.688v-5.213h2.527v3.082c-0.004,0.207,0.017,0.416,0.062,0.619
	c0.041,0.169,0.106,0.311,0.198,0.424c0.096,0.115,0.217,0.207,0.354,0.268c0.146,0.066,0.322,0.119,0.527,0.156v-4.549h0.693
	V24.389z M112.718,17.277h2.195c0.338,0,0.641,0.047,0.908,0.143c0.256,0.088,0.488,0.231,0.682,0.419
	c0.188,0.184,0.33,0.412,0.429,0.681s0.147,0.578,0.147,0.923v3.109h-2.195c-0.338,0-0.641-0.049-0.908-0.146
	c-0.256-0.089-0.488-0.233-0.682-0.422c-0.188-0.185-0.33-0.412-0.428-0.682c-0.1-0.27-0.148-0.578-0.148-0.924V17.277z
	 M113.405,17.958v2.399c0,0.275,0.026,0.51,0.081,0.701c0.055,0.192,0.141,0.35,0.26,0.469c0.117,0.121,0.273,0.207,0.467,0.261
	c0.229,0.057,0.465,0.083,0.701,0.078h1.474v-2.399c0-0.279-0.026-0.515-0.078-0.705c-0.044-0.175-0.133-0.335-0.257-0.466
	c-0.118-0.12-0.272-0.207-0.463-0.259c-0.23-0.057-0.468-0.084-0.705-0.079H113.405z M117.08,10.223v5.3
	c-0.488-0.027-0.896-0.084-1.221-0.172c-0.324-0.088-0.582-0.225-0.773-0.414c-0.203-0.207-0.344-0.466-0.407-0.748
	c-0.08-0.311-0.121-0.705-0.125-1.183V10.91h-1.147v4.525h-0.688v-5.213h2.527v3.082c0,0.245,0.021,0.451,0.062,0.62
	c0.033,0.154,0.101,0.298,0.198,0.422c0.096,0.116,0.217,0.208,0.354,0.268c0.146,0.066,0.322,0.119,0.527,0.158v-4.549H117.08
	L117.08,10.223z M117.08,7.666v0.687h-4.361V7.666H117.08z"/>
<g transform="matrix(-2.575623 -.432785 .432785 -2.575623 92.81385 839.56141)">
	<path fill="#FFFFFF" d="M83.144,303.282l-0.341-0.162l-0.055,0.463l0.337,0.189L83.144,303.282z M82.784,303.111l-0.332-0.157
		l-0.02,0.452l0.297,0.167L82.784,303.111z"/>
	<path fill="#FFFFFF" d="M83.745,303.452l-0.06,0.263l-0.144-0.137l0.019-0.1l-0.396-0.188l-0.058,0.491l0.358,0.2l0.02-0.099
		l0.004,0.002l0.163-0.015l-0.107,0.468l0.329,0.175l-0.148,0.203l-0.02-0.015l-0.048,0.066l0.067,0.05l0.048-0.066l-0.02-0.015
		l0.152-0.207l0.193,0.102l0.178-0.96L83.745,303.452L83.745,303.452L83.745,303.452z M83.49,303.837l0.039-0.208l0.142,0.136
		l-0.015,0.065L83.49,303.837z M84.286,303.648l0.412,0.027l-0.499-0.212l-0.439-0.034L84.286,303.648z M85.45,304.414l-0.621-0.308
		l-0.018,0.067l-0.004-0.002l-0.206,0l0.098-0.472l-0.405-0.02l-0.178,0.96l0.093-0.015l0.022,0.234l-0.024,0.002l0.008,0.082
		l0.083-0.008l-0.007-0.082l-0.025,0.002l-0.022-0.237l0.276-0.047l0.027-0.131l0.147,0.167l-0.014,0.048l0.561,0.314L85.45,304.414
		L85.45,304.414z M84.561,304.363l0.027-0.134l0.205,0.01l-0.082,0.295L84.561,304.363z"/>
	<path fill="#FFFFFF" d="M86.156,304.765l-0.226,0.592l0.02,0.011l0.008,0.004l0.746,0.418l0.31-0.6l-0.839-0.416l-0.007-0.004
		L86.156,304.765z M85.256,304.979l0.006,0.004l0.651,0.364l0.225-0.592l-0.669-0.332l-0.004-0.001l-0.078,0.215L85.256,304.979z"/>
</g>
<path fill="#FFFFFF" d="M19.53,2.814l-0.217-0.511l-1.212,0.569l0.254,0.492L19.53,2.814z M11.192,28.482l0.763,1.099l0.444-0.334
	l-0.74-1.063L11.192,28.482z M9.058,16.622l-0.55-0.07l-0.119,1.332l0.554,0.029L9.058,16.622L9.058,16.622z M9.782,11.835
	l0.51,0.216l0.551-1.17l-0.494-0.255L9.782,11.835L9.782,11.835z M8.819,14.799l0.542,0.125l0.337-1.251l-0.529-0.165L8.819,14.799z
	 M9.744,25.721l0.562,1.215l0.493-0.25l-0.543-1.179L9.744,25.721z M8.798,22.754l0.341,1.292l0.53-0.162l-0.33-1.252L8.798,22.754
	L8.798,22.754z M25.39,1.461l-0.03-0.553l-1.33,0.118l0.07,0.551L25.39,1.461z M34.411,2.822l-1.214-0.563l-0.212,0.513l1.176,0.543
	L34.411,2.822z M22.4,1.88l-0.125-0.541l-1.29,0.348l0.165,0.53L22.4,1.88z M31.523,1.656L30.23,1.315l-0.121,0.541l1.252,0.331
	L31.523,1.656z M11.243,9.085l0.466,0.303l0.744-1.061l-0.441-0.335L11.243,9.085L11.243,9.085z M28.474,1.013l-1.332-0.111
	l-0.026,0.554l1.29,0.108L28.474,1.013z M30.339,35.795l0.123,0.564l1.344-0.348l-0.164-0.555L30.339,35.795z M32.898,34.909
	l0.212,0.514l1.216-0.555l-0.249-0.49L32.898,34.909z M13.158,6.629l0.407,0.376l0.915-0.916l-0.376-0.406L13.158,6.629
	L13.158,6.629z M15.468,4.535l0.335,0.441l1.059-0.745l-0.301-0.466L15.468,4.535z M18.015,34.732l1.206,0.572l0.221-0.51
	l-1.168-0.554L18.015,34.732L18.015,34.732z M15.391,33.055l1.089,0.773l0.305-0.465l-1.056-0.75L15.391,33.055z M13.502,30.575
	l-0.409,0.374l0.939,0.951l0.381-0.403L13.502,30.575z M20.856,35.92l1.34,0.367l0.133-0.563l-1.298-0.356L20.856,35.92z
	 M24.016,36.625l1.382,0.131l0.034-0.574l-1.341-0.129L24.016,36.625z M27.228,36.193l0.022,0.576l1.384-0.107l-0.065-0.572
	L27.228,36.193L27.228,36.193z"/>
</svg>
