<svg xmlns="http://www.w3.org/2000/svg" viewBox="0 0 749.29 150.21"><defs><style>.cls-1{fill:#fff;}</style></defs><title>World Space Week Logo Creation Template</title><g id="Base_Art" data-name="Base Art"><path class="cls-1" d="M219.07,47.76l8.18-43.22h12.47L226.24,65.28h-12.6l-9.89-40.64-9.89,40.64h-12.6L167.79,4.54h12.47l8.22,43.14,10-43.14h10.6Z"/><path class="cls-1" d="M240,42.29a26.77,26.77,0,0,1,2.59-12A18.93,18.93,0,0,1,250,22.18a21.73,21.73,0,0,1,11.29-2.88q9.14,0,14.92,5.59t6.45,15.19l.08,3.09q0,10.39-5.8,16.67t-15.56,6.28q-9.76,0-15.58-6.26t-5.82-17Zm12.06.86q0,6.43,2.42,9.84a8.69,8.69,0,0,0,13.77,0q2.46-3.36,2.46-10.76,0-6.31-2.46-9.78A8,8,0,0,0,261.27,29a7.87,7.87,0,0,0-6.84,3.45Q252,35.92,252,43.15Z"/><path class="cls-1" d="M312.94,31.45a32.8,32.8,0,0,0-4.34-.33q-6.84,0-9,4.63V65.28H287.58V20.14H299l.33,5.38q3.63-6.22,10.05-6.22a12.65,12.65,0,0,1,3.76.54Z"/><path class="cls-1" d="M328.91,65.28h-12.1V1.2h12.1Z"/><path class="cls-1" d="M334.39,42.38q0-10.55,4.74-16.81a15.36,15.36,0,0,1,13-6.26A13.83,13.83,0,0,1,363,24.23V1.2h12.1V65.28H364.18l-.58-4.8A14.19,14.19,0,0,1,352,66.12a15.32,15.32,0,0,1-12.79-6.28Q334.39,53.56,334.39,42.38Zm12.06.86q0,6.37,2.21,9.77a7.2,7.2,0,0,0,6.43,3.4q5.59,0,7.88-4.74V33.76Q360.72,29,355.17,29,346.45,29,346.45,43.23Z"/><path class="cls-1" d="M429,49.34a6.42,6.42,0,0,0-2.5-5.44q-2.5-1.9-9-4a63.79,63.79,0,0,1-10.31-4.15q-10.35-5.59-10.35-15.06a14.66,14.66,0,0,1,2.77-8.78,18.1,18.1,0,0,1,8-6A30,30,0,0,1,419.24,3.7a27.31,27.31,0,0,1,11.6,2.36,18.48,18.48,0,0,1,7.91,6.65,17.41,17.41,0,0,1,2.82,9.76H429A8.19,8.19,0,0,0,426.42,16q-2.63-2.32-7.38-2.32-4.59,0-7.13,1.94a6.12,6.12,0,0,0-2.55,5.11,5.86,5.86,0,0,0,3,5,33.69,33.69,0,0,0,8.78,3.75q10.68,3.21,15.56,8a15.87,15.87,0,0,1,4.88,11.85,14.62,14.62,0,0,1-6,12.37q-6,4.49-16.06,4.48a31,31,0,0,1-12.77-2.57,20.2,20.2,0,0,1-8.78-7,18,18,0,0,1-3-10.35h12.56q0,10.06,12,10.06a11.69,11.69,0,0,0,7-1.82A5.9,5.9,0,0,0,429,49.34Z"/><path class="cls-1" d="M487.32,43.13q0,10.43-4.74,16.71a15.18,15.18,0,0,1-12.79,6.28,14.06,14.06,0,0,1-11.06-4.76V82.64H446.68V20.14h11.18l.42,4.42a14.17,14.17,0,0,1,11.43-5.26q8.34,0,13,6.17t4.63,17Zm-12.06-.92q0-6.32-2.23-9.75A7.27,7.27,0,0,0,466.54,29q-5.67,0-7.8,4.35V51.92q2.21,4.48,7.88,4.48Q475.26,56.39,475.26,42.21Z"/><path class="cls-1" d="M518.38,65.28a13.39,13.39,0,0,1-1.21-4,14.59,14.59,0,0,1-11.39,4.88,16,16,0,0,1-11-3.84,12.34,12.34,0,0,1-4.36-9.68q0-7.18,5.32-11t15.37-3.88h5.55V35.12a7.44,7.44,0,0,0-1.61-5q-1.61-1.88-5.07-1.88a7.19,7.19,0,0,0-4.78,1.46,5,5,0,0,0-1.73,4H491.43a12.11,12.11,0,0,1,2.42-7.26,16,16,0,0,1,6.84-5.24,24.94,24.94,0,0,1,9.93-1.9q8.34,0,13.25,4.19t4.9,11.79V54.85q0,6.43,1.79,9.72v.71Zm-10-8.39a10.39,10.39,0,0,0,4.92-1.19,7.81,7.81,0,0,0,3.34-3.19V44.75h-4.51q-9.05,0-9.64,6.26l0,.71a4.83,4.83,0,0,0,1.59,3.71A6.15,6.15,0,0,0,508.41,56.89Z"/><path class="cls-1" d="M554.24,56.39a7.91,7.91,0,0,0,5.42-1.84,6.43,6.43,0,0,0,2.17-4.88h11.31a15.47,15.47,0,0,1-2.5,8.41A16.52,16.52,0,0,1,563.9,64a21.1,21.1,0,0,1-9.45,2.11q-9.68,0-15.27-6.15t-5.59-17v-.79q0-10.43,5.55-16.65t15.23-6.22q8.47,0,13.58,4.82T573.14,37H561.83a8.29,8.29,0,0,0-2.17-5.72,8.06,8.06,0,0,0-11.87.87q-2.15,3.07-2.15,10v1.25q0,7,2.13,10A7.35,7.35,0,0,0,554.24,56.39Z"/><path class="cls-1" d="M598.24,66.12q-9.93,0-16.17-6.09t-6.24-16.23V42.63a27.27,27.27,0,0,1,2.63-12.16,19.29,19.29,0,0,1,7.45-8.26,20.9,20.9,0,0,1,11-2.9q9.26,0,14.58,5.84t5.32,16.56v4.92H588.06a11.2,11.2,0,0,0,3.53,7.09A10.66,10.66,0,0,0,599,56.39a13,13,0,0,0,10.89-5L615.84,58a18.1,18.1,0,0,1-7.34,6A24.09,24.09,0,0,1,598.24,66.12ZM596.86,29A7.53,7.53,0,0,0,591,31.46a12.58,12.58,0,0,0-2.86,7H605v-1a9,9,0,0,0-2.17-6.22A7.77,7.77,0,0,0,596.86,29Z"/><path class="cls-1" d="M219.07,132.69l8.18-43.22h12.47l-13.48,60.75h-12.6l-9.89-40.64-9.89,40.64h-12.6L167.79,89.46h12.47l8.22,43.14,10-43.14h10.6Z"/><path class="cls-1" d="M262.61,151q-9.93,0-16.17-6.09t-6.24-16.23v-1.17a27.27,27.27,0,0,1,2.63-12.16,19.29,19.29,0,0,1,7.45-8.26,20.9,20.9,0,0,1,11-2.9q9.26,0,14.58,5.84t5.32,16.56v4.92H252.43a11.2,11.2,0,0,0,3.53,7.09,10.66,10.66,0,0,0,7.45,2.67,13,13,0,0,0,10.89-5l5.92,6.63a18.1,18.1,0,0,1-7.34,6A24.1,24.1,0,0,1,262.61,151ZM261.23,114a7.53,7.53,0,0,0-5.82,2.43,12.59,12.59,0,0,0-2.86,7h16.77v-1a9,9,0,0,0-2.17-6.22A7.77,7.77,0,0,0,261.23,114Z"/><path class="cls-1" d="M306.23,151q-9.93,0-16.17-6.09t-6.24-16.23v-1.17a27.27,27.27,0,0,1,2.63-12.16,19.3,19.3,0,0,1,7.45-8.26,20.91,20.91,0,0,1,11-2.9q9.26,0,14.58,5.84t5.32,16.56v4.92H296a11.2,11.2,0,0,0,3.53,7.09,10.66,10.66,0,0,0,7.45,2.67,13,13,0,0,0,10.89-5l5.92,6.63a18.1,18.1,0,0,1-7.34,6A24.09,24.09,0,0,1,306.23,151ZM304.85,114a7.53,7.53,0,0,0-5.82,2.43,12.59,12.59,0,0,0-2.86,7h16.77v-1a9,9,0,0,0-2.17-6.22A7.77,7.77,0,0,0,304.85,114Z"/><path class="cls-1" d="M345.47,132.1l-4.34,4.34v13.77H329.07V86.13h12.06v35.5l2.34-3L355,105.07H369.5l-16.31,18.82,17.73,26.33H357.07Z"/><path class="cls-1" d="M15.38,68.08a67.18,67.18,0,0,1,5-26.33H0V150.21H108.56V129.76l-.17-.11a67.39,67.39,0,0,1-93-61.57Z"/><path class="cls-1" d="M150.09,67.36A67.37,67.37,0,0,0,20.42,41.75h.12a88,88,0,0,1,88,87.83A67.37,67.37,0,0,0,150.09,67.36Z"/></g><g id="October_4-10" data-name="October 4-10"><path class="cls-1" d="M426.67,131.77a23.28,23.28,0,0,1-1.92,9.77,14.67,14.67,0,0,1-5.49,6.47,15,15,0,0,1-8.24,2.27,14.31,14.31,0,0,1-11.4-5q-4.34-5-4.34-13.63v-4.15a23.14,23.14,0,0,1,2-9.75A14.49,14.49,0,0,1,411,108.89a15.06,15.06,0,0,1,8.2,2.24,14.73,14.73,0,0,1,5.49,6.34,22.81,22.81,0,0,1,2,9.49Zm-3.4-4.37q0-7.28-3.29-11.4a11.84,11.84,0,0,0-18,0q-3.33,4.14-3.33,11.55v4.21q0,7.17,3.32,11.36a11.85,11.85,0,0,0,18,.05q3.24-4.14,3.24-11.52Z"/><path class="cls-1" d="M463.2,137.17q-.69,6.36-4.55,9.74t-10.28,3.38a14.21,14.21,0,0,1-7.93-2.24,14.61,14.61,0,0,1-5.33-6.35,22.61,22.61,0,0,1-1.91-9.39v-5.23a22.82,22.82,0,0,1,1.88-9.52,14.47,14.47,0,0,1,5.41-6.41,14.75,14.75,0,0,1,8.12-2.26q6.47,0,10.22,3.49A14.6,14.6,0,0,1,463.2,122h-3.43q-1.27-10.26-11.15-10.26a10.57,10.57,0,0,0-8.73,4.1q-3.25,4.1-3.25,11.32v4.93q0,7,3.17,11.13a10.2,10.2,0,0,0,8.56,4.15q5.34,0,8.05-2.56t3.35-7.68Z"/><path class="cls-1" d="M497.44,112.32H483.64v37.41h-3.4V112.32H466.46v-2.88h31Z"/><path class="cls-1" d="M532.37,131.77a23.28,23.28,0,0,1-1.92,9.77A14.67,14.67,0,0,1,525,148a15,15,0,0,1-8.25,2.27,14.31,14.31,0,0,1-11.4-5q-4.34-5-4.34-13.63v-4.15a23.13,23.13,0,0,1,2-9.75,14.49,14.49,0,0,1,13.74-8.81,15.06,15.06,0,0,1,8.2,2.24,14.73,14.73,0,0,1,5.49,6.34,22.8,22.8,0,0,1,2,9.49ZM529,127.4q0-7.28-3.29-11.4a11.84,11.84,0,0,0-18,0q-3.33,4.14-3.33,11.55v4.21q0,7.17,3.32,11.36a11.85,11.85,0,0,0,18,.05Q529,139,529,131.66Z"/><path class="cls-1" d="M540.38,149.73V109.44h11.9q6.47,0,9.82,2.67t3.35,7.88a8.93,8.93,0,0,1-1.7,5.44,9.29,9.29,0,0,1-4.66,3.31,9.76,9.76,0,0,1,7.8,9.65,10.47,10.47,0,0,1-3.44,8.34q-3.44,3-9.59,3Zm3.4-22.22h9.3a10.44,10.44,0,0,0,6.6-2,6.86,6.86,0,0,0,2.34-5.61q0-3.88-2.42-5.72t-7.32-1.84h-8.49Zm0,2.88v16.46H554a10.2,10.2,0,0,0,6.93-2.22,7.75,7.75,0,0,0,2.56-6.17,7.48,7.48,0,0,0-2.45-5.9,9.85,9.85,0,0,0-6.76-2.17Z"/><path class="cls-1" d="M596.78,130.41H577.94v16.43h21.66v2.88H574.54V109.44h24.93v2.88H577.94v15.22h18.84Z"/><path class="cls-1" d="M621.26,132.93h-11.7v16.79h-3.43V109.44h13.09q6.45,0,10.07,3.12t3.62,8.73a10.9,10.9,0,0,1-2.27,6.83,11.6,11.6,0,0,1-6.09,4.09l10.07,17.15v.36H631Zm-11.7-2.88H620a9.66,9.66,0,0,0,6.89-2.44,9.21,9.21,0,0,0-.11-12.94q-2.71-2.36-7.61-2.36h-9.6Z"/><path class="cls-1" d="M673.85,136.75h6.28v2.79h-6.28v10.18h-3.32V139.55h-19v-1.88l18.65-28.22h3.62Zm-18.21,0h14.88v-23l-1.47,2.55Z"/><path class="cls-1" d="M699.41,133.35h-10.6v-2.79h10.6Z"/><path class="cls-1" d="M715.41,149.73h-3.32v-36.3l-11,4.07v-3.1l13.72-5.09h.55Z"/><path class="cls-1" d="M749.29,132.93q0,8.52-3.13,12.93t-9.21,4.41a10.67,10.67,0,0,1-9.16-4.33q-3.18-4.33-3.26-12.6v-7.22q0-8.49,3.15-12.87t9.21-4.37q6,0,9.13,4.22t3.26,12.44ZM746,125.71q0-6.92-2.26-10.46a8.33,8.33,0,0,0-13.57-.08q-2.27,3.46-2.32,10.21v7.91q0,6.89,2.34,10.54a7.57,7.57,0,0,0,6.79,3.65,7.46,7.46,0,0,0,6.71-3.57q2.28-3.57,2.31-10.46Z"/></g></svg>